<mxfile host="app.diagrams.net" agent="Mozilla/5.0 (Windows NT 10.0; Win64; x64) AppleWebKit/537.36 (KHTML, like Gecko) Chrome/136.0.0.0 Safari/537.36" version="27.0.3">
  <diagram name="第 1 页" id="k3ZfNU9zJYXyTW3TGclp">
    <mxGraphModel dx="1042" dy="570" grid="1" gridSize="10" guides="1" tooltips="1" connect="1" arrows="1" fold="1" page="1" pageScale="1" pageWidth="827" pageHeight="1169" math="0" shadow="0">
      <root>
        <mxCell id="0" />
        <mxCell id="1" parent="0" />
        <mxCell id="10AEJ8Y7CU0zdf3qMV4C-3" value="" style="rounded=0;whiteSpace=wrap;html=1;fontSize=22;" parent="1" vertex="1">
          <mxGeometry x="330" y="110" width="250" height="440" as="geometry" />
        </mxCell>
        <mxCell id="10AEJ8Y7CU0zdf3qMV4C-4" value="量子仿真实验系统" style="text;strokeColor=none;align=center;fillColor=none;html=1;verticalAlign=middle;whiteSpace=wrap;rounded=0;fontSize=22;" parent="1" vertex="1">
          <mxGeometry x="400" y="130" width="100" height="20" as="geometry" />
        </mxCell>
        <mxCell id="PkQ2wcyarcs-Z49Vwz0M-8" style="rounded=0;orthogonalLoop=1;jettySize=auto;html=1;exitX=1;exitY=0.3333333333333333;exitDx=0;exitDy=0;exitPerimeter=0;entryX=0;entryY=0.5;entryDx=0;entryDy=0;fontSize=22;" parent="1" source="10AEJ8Y7CU0zdf3qMV4C-5" target="PkQ2wcyarcs-Z49Vwz0M-3" edge="1">
          <mxGeometry relative="1" as="geometry" />
        </mxCell>
        <mxCell id="PkQ2wcyarcs-Z49Vwz0M-10" style="rounded=0;orthogonalLoop=1;jettySize=auto;html=1;exitX=1;exitY=0.3333333333333333;exitDx=0;exitDy=0;exitPerimeter=0;fontSize=22;" parent="1" source="10AEJ8Y7CU0zdf3qMV4C-5" target="PkQ2wcyarcs-Z49Vwz0M-4" edge="1">
          <mxGeometry relative="1" as="geometry" />
        </mxCell>
        <mxCell id="PkQ2wcyarcs-Z49Vwz0M-11" style="rounded=0;orthogonalLoop=1;jettySize=auto;html=1;exitX=1;exitY=0.3333333333333333;exitDx=0;exitDy=0;exitPerimeter=0;entryX=0;entryY=0.5;entryDx=0;entryDy=0;fontSize=22;" parent="1" source="10AEJ8Y7CU0zdf3qMV4C-5" target="PkQ2wcyarcs-Z49Vwz0M-5" edge="1">
          <mxGeometry relative="1" as="geometry" />
        </mxCell>
        <object label="Actor" id="10AEJ8Y7CU0zdf3qMV4C-5">
          <mxCell style="shape=umlActor;verticalLabelPosition=bottom;verticalAlign=top;metaEdit=0;html=1;fontColor=none;noLabel=1;fontSize=22;" parent="1" vertex="1">
            <mxGeometry x="130" y="300" width="30" height="60" as="geometry" />
          </mxCell>
        </object>
        <mxCell id="PkQ2wcyarcs-Z49Vwz0M-15" style="rounded=0;orthogonalLoop=1;jettySize=auto;html=1;exitX=0;exitY=0.3333333333333333;exitDx=0;exitDy=0;exitPerimeter=0;entryX=1;entryY=0.5;entryDx=0;entryDy=0;fontSize=22;" parent="1" source="10AEJ8Y7CU0zdf3qMV4C-6" target="PkQ2wcyarcs-Z49Vwz0M-3" edge="1">
          <mxGeometry relative="1" as="geometry" />
        </mxCell>
        <mxCell id="PkQ2wcyarcs-Z49Vwz0M-17" style="rounded=0;orthogonalLoop=1;jettySize=auto;html=1;exitX=0;exitY=0.3333333333333333;exitDx=0;exitDy=0;exitPerimeter=0;entryX=1;entryY=0.5;entryDx=0;entryDy=0;fontSize=22;" parent="1" source="10AEJ8Y7CU0zdf3qMV4C-6" target="PkQ2wcyarcs-Z49Vwz0M-5" edge="1">
          <mxGeometry relative="1" as="geometry" />
        </mxCell>
        <mxCell id="10AEJ8Y7CU0zdf3qMV4C-6" value="Actor" style="shape=umlActor;verticalLabelPosition=bottom;verticalAlign=top;html=1;fontColor=none;noLabel=1;fontSize=22;" parent="1" vertex="1">
          <mxGeometry x="720" y="300" width="30" height="60" as="geometry" />
        </mxCell>
        <mxCell id="PkQ2wcyarcs-Z49Vwz0M-2" value="系统管理" style="ellipse;whiteSpace=wrap;html=1;fontSize=22;" parent="1" vertex="1">
          <mxGeometry x="380" y="170" width="140" height="70" as="geometry" />
        </mxCell>
        <mxCell id="PkQ2wcyarcs-Z49Vwz0M-3" value="量子模拟" style="ellipse;whiteSpace=wrap;html=1;fontSize=22;" parent="1" vertex="1">
          <mxGeometry x="380" y="260" width="140" height="70" as="geometry" />
        </mxCell>
        <mxCell id="PkQ2wcyarcs-Z49Vwz0M-4" value="算法模拟" style="ellipse;whiteSpace=wrap;html=1;fontSize=22;" parent="1" vertex="1">
          <mxGeometry x="380" y="350" width="140" height="70" as="geometry" />
        </mxCell>
        <mxCell id="PkQ2wcyarcs-Z49Vwz0M-5" value="数据管理" style="ellipse;whiteSpace=wrap;html=1;fontSize=22;" parent="1" vertex="1">
          <mxGeometry x="380" y="450" width="140" height="70" as="geometry" />
        </mxCell>
        <mxCell id="PkQ2wcyarcs-Z49Vwz0M-7" style="rounded=0;orthogonalLoop=1;jettySize=auto;html=1;exitX=1;exitY=0.3333333333333333;exitDx=0;exitDy=0;exitPerimeter=0;entryX=0.031;entryY=0.603;entryDx=0;entryDy=0;entryPerimeter=0;fontSize=22;" parent="1" source="10AEJ8Y7CU0zdf3qMV4C-5" target="PkQ2wcyarcs-Z49Vwz0M-2" edge="1">
          <mxGeometry relative="1" as="geometry" />
        </mxCell>
        <mxCell id="PkQ2wcyarcs-Z49Vwz0M-12" value="系统管理员" style="text;html=1;align=center;verticalAlign=middle;resizable=0;points=[];autosize=1;strokeColor=none;fillColor=none;fontSize=22;" parent="1" vertex="1">
          <mxGeometry x="75" y="363" width="130" height="40" as="geometry" />
        </mxCell>
        <mxCell id="PkQ2wcyarcs-Z49Vwz0M-14" value="普通用户" style="text;html=1;align=center;verticalAlign=middle;resizable=0;points=[];autosize=1;strokeColor=none;fillColor=none;fontSize=22;" parent="1" vertex="1">
          <mxGeometry x="685" y="353" width="110" height="40" as="geometry" />
        </mxCell>
        <mxCell id="PkQ2wcyarcs-Z49Vwz0M-16" style="rounded=0;orthogonalLoop=1;jettySize=auto;html=1;entryX=0.957;entryY=0.397;entryDx=0;entryDy=0;entryPerimeter=0;fontSize=22;" parent="1" target="PkQ2wcyarcs-Z49Vwz0M-4" edge="1">
          <mxGeometry relative="1" as="geometry">
            <mxPoint x="720" y="320" as="sourcePoint" />
          </mxGeometry>
        </mxCell>
      </root>
    </mxGraphModel>
  </diagram>
</mxfile>
